<?xml version="1.0" encoding="utf-8"?>
<svg version="1.1" xmlns:xlink="http://www.w3.org/1999/xlink" width="47px" height="47px" xmlns="http://www.w3.org/2000/svg">
  <defs>
    <path d="M 0 0  L 1024 0  L 1024 1024  L 0 1024  Z " fill-rule="evenodd" fill="black" id="path610" />
    <clipPath id="clip611">
      <use xlink:href="#path610" />
    </clipPath>
    <defs>
      <style type="text/css"></style>
    </defs>
    <path d="M464.896 619.008c-10.24 0-19.968-4.096-27.136-11.264l-20.992-20.992c-30.208-30.208-47.104-70.656-47.104-113.664 0-43.008 16.896-82.944 47.104-113.664L586.752 189.44c30.208-30.208 70.656-47.104 113.664-47.104 43.008 0 82.944 16.896 113.664 47.104l20.992 20.992c30.208 30.208 47.104 70.656 47.104 113.664S865.28 407.04 835.072 437.76l-65.536 65.536c-7.168 7.168-16.896 11.264-27.136 11.264s-20.48-4.096-27.648-11.264c-14.848-15.36-14.848-39.936 0-54.784l65.536-65.536c15.872-15.872 24.064-36.352 24.064-58.368 0-22.016-8.704-43.008-24.064-58.368l-20.992-20.992c-15.872-15.872-36.352-24.064-58.368-24.064-22.016 0-43.008 8.704-58.368 24.064l-171.008 168.96c-15.872 15.872-24.064 36.352-24.064 58.368 0 22.016 8.704 43.008 24.064 58.368l20.992 20.992c15.36 15.36 15.36 39.936 0 54.784-6.656 6.656-16.384 10.752-26.112 11.264l-1.536 1.024z" fill="#efb336" p-id="6635"></path>
    <path d="M324.096 881.152c-43.008 0-82.944-16.896-113.664-47.104l-20.992-20.992c-30.208-30.208-47.104-70.656-47.104-113.664s16.896-82.944 47.104-113.664L264.192 512c7.168-7.168 17.408-11.264 27.136-11.264 10.24 0 20.48 4.096 27.648 11.264 7.168 7.168 11.264 17.408 11.264 27.648 0 10.24-4.096 19.968-11.264 27.648l-74.24 74.24c-32.256 32.256-32.256 84.992 0 117.248l20.992 20.992c15.36 15.36 36.352 24.064 58.368 24.064h0.512c21.504 0 43.008-8.704 58.368-24.064L552.96 609.792c32.256-32.256 32.256-84.992 0-117.248l-20.992-20.992c-14.848-15.36-14.848-39.936 0-54.784 7.168-7.168 17.408-11.264 27.136-11.264 10.24 0 19.968 4.096 27.648 11.264l20.992 20.992c62.464 62.464 62.464 164.352 0 226.816L437.76 834.56c-30.72 30.208-70.656 46.592-113.664 46.592z" fill="#00cccc" p-id="6636"></path>
    <filter x="-50.00%" y="-50.00%" width="200.00%" height="200.00%" filterUnits="objectBoundingBox" id="filter612">
      <feColorMatrix type="matrix" values="1 0 0 0 0  0 1 0 0 0  0 0 1 0 0  0 0 0 1 0  " in="SourceGraphic" />
    </filter>
    <filter x="680px" y="1313px" width="47px" height="47px" filterUnits="userSpaceOnUse" id="filter613">
      <feOffset dx="5" dy="5" in="SourceAlpha" result="shadowOffsetInner" />
      <feGaussianBlur stdDeviation="2.5" in="shadowOffsetInner" result="shadowGaussian" />
      <feComposite in2="shadowGaussian" operator="atop" in="SourceAlpha" result="shadowComposite" />
      <feColorMatrix type="matrix" values="0 0 0 0 0  0 0 0 0 0  0 0 0 0 0  0 0 0 0.349019607843137 0  " in="shadowComposite" />
    </filter>
    <g id="widget614">
      <g transform="matrix(0.0361328125 0 0 0.0361328125 680 1313 )" clip-path="url(#clip611)" filter="url(#filter612)">
        <path d="M464.896 619.008c-10.24 0-19.968-4.096-27.136-11.264l-20.992-20.992c-30.208-30.208-47.104-70.656-47.104-113.664 0-43.008 16.896-82.944 47.104-113.664L586.752 189.44c30.208-30.208 70.656-47.104 113.664-47.104 43.008 0 82.944 16.896 113.664 47.104l20.992 20.992c30.208 30.208 47.104 70.656 47.104 113.664S865.28 407.04 835.072 437.76l-65.536 65.536c-7.168 7.168-16.896 11.264-27.136 11.264s-20.48-4.096-27.648-11.264c-14.848-15.36-14.848-39.936 0-54.784l65.536-65.536c15.872-15.872 24.064-36.352 24.064-58.368 0-22.016-8.704-43.008-24.064-58.368l-20.992-20.992c-15.872-15.872-36.352-24.064-58.368-24.064-22.016 0-43.008 8.704-58.368 24.064l-171.008 168.96c-15.872 15.872-24.064 36.352-24.064 58.368 0 22.016 8.704 43.008 24.064 58.368l20.992 20.992c15.36 15.36 15.36 39.936 0 54.784-6.656 6.656-16.384 10.752-26.112 11.264l-1.536 1.024z" fill="#efb336" p-id="6635"></path>
        <path d="M324.096 881.152c-43.008 0-82.944-16.896-113.664-47.104l-20.992-20.992c-30.208-30.208-47.104-70.656-47.104-113.664s16.896-82.944 47.104-113.664L264.192 512c7.168-7.168 17.408-11.264 27.136-11.264 10.24 0 20.48 4.096 27.648 11.264 7.168 7.168 11.264 17.408 11.264 27.648 0 10.24-4.096 19.968-11.264 27.648l-74.24 74.24c-32.256 32.256-32.256 84.992 0 117.248l20.992 20.992c15.36 15.36 36.352 24.064 58.368 24.064h0.512c21.504 0 43.008-8.704 58.368-24.064L552.96 609.792c32.256-32.256 32.256-84.992 0-117.248l-20.992-20.992c-14.848-15.36-14.848-39.936 0-54.784 7.168-7.168 17.408-11.264 27.136-11.264 10.24 0 19.968 4.096 27.648 11.264l20.992 20.992c62.464 62.464 62.464 164.352 0 226.816L437.76 834.56c-30.72 30.208-70.656 46.592-113.664 46.592z" fill="#00cccc" p-id="6636"></path>
      </g>
    </g>
  </defs>
  <g transform="matrix(1 0 0 1 -680 -1313 )">
    <use xlink:href="#widget614" filter="url(#filter613)" />
    <use xlink:href="#widget614" />
  </g>
</svg>