<?xml version="1.0" standalone="no"?><!DOCTYPE svg PUBLIC "-//W3C//DTD SVG 1.1//EN" "http://www.w3.org/Graphics/SVG/1.1/DTD/svg11.dtd"><svg t="1611644277321" class="icon" viewBox="0 0 2928 1024" version="1.1" xmlns="http://www.w3.org/2000/svg" p-id="11070" data-spm-anchor-id="a313x.7781069.0.i5" width="571.875" height="200" xmlns:xlink="http://www.w3.org/1999/xlink"><defs><style type="text/css"></style></defs><path d="M2888.757895 223.663158c23.354386 11.677193 39.522807 35.929825 39.522807 63.775438v664.701755c0 39.522807-32.336842 71.859649-71.859649 71.859649H305.403509c-11.677193 0-23.354386-2.694737-33.235088-8.084211h-3.592982l-8.084211-8.08421c-3.592982-2.694737-6.287719-5.389474-8.982456-8.982456L56.589474 809.319298l4.491228-1.796491C26.049123 802.133333 0 772.491228 0 736.561404V71.859649c0-39.522807 32.336842-71.859649 71.859649-71.859649h2551.017544c26.049123 0 49.403509 14.37193 61.978947 35.031579l203.901755 188.631579zM71.859649 0C32.336842 0 0 32.336842 0 71.859649v664.701755c0 39.522807 32.336842 71.859649 71.859649 71.859649h2551.017544c39.522807 0 71.859649-32.336842 71.859649-71.859649V71.859649c0-39.522807-32.336842-71.859649-71.859649-71.859649H71.859649z" fill="#cdcdcd" p-id="11071" data-spm-anchor-id="a313x.7781069.0.i4" class=""></path><path d="M71.859649 8.982456C36.82807 8.982456 8.982456 36.82807 8.982456 71.859649v664.701755c0 35.031579 27.845614 62.877193 62.877193 62.877192h2551.017544c35.031579 0 62.877193-27.845614 62.877193-62.877192V71.859649c0-35.031579-27.845614-62.877193-62.877193-62.877193H71.859649z m0-8.982456h2551.017544c39.522807 0 71.859649 32.336842 71.859649 71.859649v664.701755c0 39.522807-32.336842 71.859649-71.859649 71.859649H71.859649c-39.522807 0-71.859649-32.336842-71.859649-71.859649V71.859649c0-39.522807 32.336842-71.859649 71.859649-71.859649z" fill="#cdcdcd" p-id="11072"></path></svg>