<?xml version="1.0" encoding="utf-8"?>
<svg version="1.1" xmlns:xlink="http://www.w3.org/1999/xlink" width="18px" height="18px" xmlns="http://www.w3.org/2000/svg">
  <defs>
    <mask fill="white" id="clip62">
      <path d="M 0 9  C 0 7.30429556121703  0.448264583061075 5.73084509963252  1.23510771119686 4.38933465323294  C 2.78693238100027 1.7435861792593  5.65570443878295 0  9 0  C 14.04 0  18 3.95999999999998  18 9  C 18 14.04  14.04 18  9 18  C 4.40651259883992 18  0.710139419814936 14.7105811855049  0.0912417733899247 10.3121048669796  C 0.0310814698150921 9.88454843318493  0 9.44651259883995  0 9  Z " fill-rule="evenodd" />
    </mask>
  </defs>
  <g transform="matrix(1 0 0 1 -218 -236 )">
    <path d="M 0 9  C 0 7.30429556121703  0.448264583061075 5.73084509963252  1.23510771119686 4.38933465323294  C 2.78693238100027 1.7435861792593  5.65570443878295 0  9 0  C 14.04 0  18 3.95999999999998  18 9  C 18 14.04  14.04 18  9 18  C 4.40651259883992 18  0.710139419814936 14.7105811855049  0.0912417733899247 10.3121048669796  C 0.0310814698150921 9.88454843318493  0 9.44651259883995  0 9  Z " fill-rule="nonzero" fill="#ffffff" stroke="none" transform="matrix(1 0 0 1 218 236 )" />
    <path d="M 0 9  C 0 7.30429556121703  0.448264583061075 5.73084509963252  1.23510771119686 4.38933465323294  C 2.78693238100027 1.7435861792593  5.65570443878295 0  9 0  C 14.04 0  18 3.95999999999998  18 9  C 18 14.04  14.04 18  9 18  C 4.40651259883992 18  0.710139419814936 14.7105811855049  0.0912417733899247 10.3121048669796  C 0.0310814698150921 9.88454843318493  0 9.44651259883995  0 9  Z " stroke-width="2" stroke="#797979" fill="none" transform="matrix(1 0 0 1 218 236 )" mask="url(#clip62)" />
  </g>
</svg>