<?xml version="1.0" encoding="utf-8"?>
<svg version="1.1" xmlns:xlink="http://www.w3.org/1999/xlink" width="18px" height="18px" xmlns="http://www.w3.org/2000/svg">
  <g transform="matrix(1 0 0 1 -218 -236 )">
    <path d="M 227 236  C 232.04 236  236 239.96  236 245  C 236 250.04  232.04 254  227 254  C 221.96 254  218 250.04  218 245  C 218 239.96  221.96 236  227 236  Z " fill-rule="nonzero" fill="#ffffff" stroke="none" />
    <path d="M 227 236.5  C 231.76 236.5  235.5 240.24  235.5 245  C 235.5 249.76  231.76 253.5  227 253.5  C 222.24 253.5  218.5 249.76  218.5 245  C 218.5 240.24  222.24 236.5  227 236.5  Z " stroke-width="1" stroke="#797979" fill="none" />
  </g>
</svg>