<?xml version="1.0" encoding="utf-8"?>
<svg version="1.1" xmlns:xlink="http://www.w3.org/1999/xlink" width="10px" height="10px" xmlns="http://www.w3.org/2000/svg">
  <g transform="matrix(1 0 0 1 -130 -230 )">
    <path d="M 135 230  C 137.8 230  140 232.2  140 235  C 140 237.8  137.8 240  135 240  C 132.2 240  130 237.8  130 235  C 130 232.2  132.2 230  135 230  Z " fill-rule="nonzero" fill="#ffffff" stroke="none" />
    <path d="M 135 230.5  C 137.52 230.5  139.5 232.48  139.5 235  C 139.5 237.52  137.52 239.5  135 239.5  C 132.48 239.5  130.5 237.52  130.5 235  C 130.5 232.48  132.48 230.5  135 230.5  Z " stroke-width="1" stroke="#797979" fill="none" />
  </g>
</svg>