<?xml version="1.0" standalone="no"?><!DOCTYPE svg PUBLIC "-//W3C//DTD SVG 1.1//EN" "http://www.w3.org/Graphics/SVG/1.1/DTD/svg11.dtd"><svg t="1618205385707" class="icon" viewBox="0 0 1024 1024" version="1.1" xmlns="http://www.w3.org/2000/svg" p-id="5966" id="mx_n_1618205385709" data-spm-anchor-id="a313x.7781069.0.i15" xmlns:xlink="http://www.w3.org/1999/xlink" width="200" height="200"><defs><style type="text/css"></style></defs><path d="M525.3 135.5h-27.2c-2.4 0-4.3-2-4.3-4.3V4.9c0-2.4 2-4.3 4.3-4.3h27.2c2.4 0 4.3 2 4.3 4.3v126.2c0 2.4-1.9 4.4-4.3 4.4z m-167.5 37.6l-23.6 13.7c-2.1 1.1-4.7 0.5-5.9-1.6L265.2 75.9c-1.1-2.1-0.5-4.7 1.6-5.9l23.6-13.7c2.1-1.1 4.7-0.5 5.9 1.5l63.1 109.4c1.1 2.1 0.5 4.7-1.6 5.9zM231.5 289.4L217.8 313c-1.1 2.1-3.8 2.8-5.9 1.6l-109.4-63.1c-2.1-1.1-2.8-3.8-1.5-5.9l13.7-23.6c1.1-2.1 3.8-2.8 5.9-1.6L230 283.5c1.9 1.3 2.6 3.9 1.5 5.9z m-51.2 163.9v27.2c0 2.4-2 4.3-4.3 4.3H49.7c-2.4 0-4.3-2-4.3-4.3v-27.2c0-2.4 2-4.3 4.3-4.3h126.2c2.4 0.1 4.4 1.9 4.4 4.3z m37.5 167.6l13.7 23.6c1.1 2.1 0.5 4.7-1.6 5.9l-109.4 63.1c-2.1 1.1-4.7 0.5-5.9-1.6L101 688.4c-1.1-2.1-0.5-4.7 1.5-5.9l109.4-63.1c2.1-1.3 4.8-0.6 5.9 1.5zM795.9 648l13.7-23.6c1.1-2.1 3.8-2.8 5.9-1.5L924.8 686c2.1 1.1 2.8 3.8 1.5 5.9l-13.7 23.6c-1.1 2.1-3.8 2.8-5.9 1.6L797.3 654c-1.9-1.3-2.6-4-1.4-6z m47.2-167.4v-27.2c0-2.4 2-4.3 4.3-4.3h126.2c2.4 0 4.3 2 4.3 4.3v27.2c0 2.4-2 4.3-4.3 4.3H847.5c-2.4 0-4.4-1.9-4.4-4.3zM805.6 313l-13.7-23.6c-1.1-2.1-0.5-4.7 1.6-5.9l109.4-63.1c2.1-1.1 4.7-0.5 5.9 1.6l13.7 23.6c1.1 2.1 0.5 4.7-1.6 5.9l-109.4 63.1c-2.1 1.2-4.8 0.5-5.9-1.6zM689.2 186.7l-23.6-13.6c-2.1-1.1-2.8-3.8-1.5-5.9l63.1-109.4c1.1-2.1 3.8-2.8 5.9-1.5l23.6 13.6c2.1 1.1 2.8 3.8 1.6 5.9l-63.1 109.4c-1.3 2-4 2.7-6 1.5z m0 0" fill="#FFED38" p-id="5967"></path><path d="M537.2 1022.7h-51c-4.4 0-8.1-3.6-8.1-8.1V934c0-4.4 3.6-8.1 8.1-8.1h51c4.4 0 8.1 3.6 8.1 8.1v80.5c0 4.6-3.7 8.2-8.1 8.2z m0 0" fill="#787BFF" p-id="5968"></path><path d="M478.1 891.7h67.1v96.7h-67.1z" fill="#11348C" p-id="5969"></path><path d="M401.2 755.1v154.7c0 33.2 30.9 60.3 68.8 60.3h83.5c37.9 0 68.8-27.1 68.8-60.3v-148c-31.4 11.2-65.8 17.4-101.9 17.4-42.8 0-83.3-8.7-119.2-24.1z m0 0" fill="#787BFF" p-id="5970"></path><path d="M411.6 941.3c12.1 17.2 33.8 28.8 58.5 28.8h83.5c37.9 0 68.8-27.1 68.8-60.3v-96.4h-36.1c-22.9 71.1-91.9 123.8-174.7 127.9z m0 0" fill="#11348C" p-id="5971"></path><path d="M401.2 777.7V822h220.9V704.6H401.2v15.3c31.3 14 65.8 22.2 102.1 23.4-32.1 15.3-66.4 26.9-102.1 34.4z m0 0" fill="#FFC12B" p-id="5972"></path><path d="M503.4 743.2c-36.3-1.1-70.8-9.3-102.1-23.4v57.8c35.6-7.4 69.9-19 102.1-34.4z m0 0" fill="#FFC12B" p-id="5973"></path><path d="M503.4 743.2c-36.3-1.1-70.8-9.3-102.1-23.4v57.8c35.6-7.4 69.9-19 102.1-34.4z m0 0" fill="#FFED38" p-id="5974"></path><path d="M760.3 364C718.6 268.1 623 201.1 511.7 201.1c-149.8 0-271.2 121.5-271.2 271.2 0 147 116.9 266.5 262.9 271 144-69 246-211.8 256.9-379.3z m0 0" fill="#FFED38" p-id="5975"></path><path d="M760.3 364c-11 167.6-113 310.4-257 379.3 2.8 0.1 5.6 0.2 8.4 0.2 149.8 0 271.2-121.5 271.2-271.2 0-38.5-8.1-75.2-22.6-108.3z m0 0" fill="#FFC12B" p-id="5976"></path><path d="M760.3 364C718.6 268.1 623 201.1 511.7 201.1c-149.8 0-271.2 121.5-271.2 271.2 0 147 116.9 266.5 262.9 271 144-69 246-211.8 256.9-379.3z m0 0" fill="#FFED38" p-id="5977"></path><path d="M318 519.9c17.3 5.6 38.5-5.3 55.7-28.7 17.2-23.4 27.6-55.6 27.5-84.6-0.1-29-10.9-50.3-28.2-55.9-17.3-5.6-38.5 5.3-55.7 28.7-17.2 23.4-27.6 55.6-27.5 84.6 0.1 29 10.9 50.3 28.2 55.9z m0 0" fill="#FFFCE9" p-id="5978" data-spm-anchor-id="a313x.7781069.0.i14" class="selected"></path></svg>