<?xml version="1.0" encoding="utf-8"?>
<svg version="1.1" xmlns:xlink="http://www.w3.org/1999/xlink" width="70px" height="70px" xmlns="http://www.w3.org/2000/svg">
  <defs>
    <path d="M 0 0  L 1024 0  L 1024 1024  L 0 1024  Z " fill-rule="evenodd" fill="black" id="path41" />
    <clipPath id="clip42">
      <use xlink:href="#path41" />
    </clipPath>
    <defs>
      <style type="text/css"></style>
    </defs>
    <path d="M992 537.6H62.4c-17.6 0-32-14.4-32-32s14.4-32 32-32H992c17.6 0 32 14.4 32 32s-14.4 32-32 32z" fill="#229BFF" p-id="5525"></path>
    <path d="M56 540.8c-8 0-16-3.2-22.4-9.6-12.8-12.8-12.8-32 0-44.8L395.2 112c12.8-12.8 32-12.8 44.8 0 12.8 12.8 12.8 32 0 44.8L78.4 531.2c-6.4 6.4-14.4 9.6-22.4 9.6z" fill="#474747" p-id="5526"></path>
    <path d="M417.6 908.8c-8 0-16-3.2-22.4-9.6l-361.6-368c-12.8-12.8-12.8-33.6 0-44.8 12.8-12.8 33.6-12.8 44.8 0l361.6 368c12.8 12.8 12.8 33.6 0 44.8-6.4 6.4-14.4 9.6-22.4 9.6z" fill="#474747" p-id="5527"></path>
    <filter x="-50.00%" y="-50.00%" width="200.00%" height="200.00%" filterUnits="objectBoundingBox" id="filter43">
      <feColorMatrix type="matrix" values="1 0 0 0 0  0 1 0 0 0  0 0 1 0 0  0 0 0 1 0  " in="SourceGraphic" />
    </filter>
    <filter x="600px" y="917px" width="70px" height="70px" filterUnits="userSpaceOnUse" id="filter44">
      <feOffset dx="5" dy="5" in="SourceAlpha" result="shadowOffsetInner" />
      <feGaussianBlur stdDeviation="2.5" in="shadowOffsetInner" result="shadowGaussian" />
      <feComposite in2="shadowGaussian" operator="atop" in="SourceAlpha" result="shadowComposite" />
      <feColorMatrix type="matrix" values="0 0 0 0 0  0 0 0 0 0  0 0 0 0 0  0 0 0 0.349019607843137 0  " in="shadowComposite" />
    </filter>
    <g id="widget45">
      <g transform="matrix(0.05859375 0 0 0.05859375 600 917 )" clip-path="url(#clip42)" filter="url(#filter43)">
        <path d="M992 537.6H62.4c-17.6 0-32-14.4-32-32s14.4-32 32-32H992c17.6 0 32 14.4 32 32s-14.4 32-32 32z" fill="#229BFF" p-id="5525"></path>
        <path d="M56 540.8c-8 0-16-3.2-22.4-9.6-12.8-12.8-12.8-32 0-44.8L395.2 112c12.8-12.8 32-12.8 44.8 0 12.8 12.8 12.8 32 0 44.8L78.4 531.2c-6.4 6.4-14.4 9.6-22.4 9.6z" fill="#474747" p-id="5526"></path>
        <path d="M417.6 908.8c-8 0-16-3.2-22.4-9.6l-361.6-368c-12.8-12.8-12.8-33.6 0-44.8 12.8-12.8 33.6-12.8 44.8 0l361.6 368c12.8 12.8 12.8 33.6 0 44.8-6.4 6.4-14.4 9.6-22.4 9.6z" fill="#474747" p-id="5527"></path>
      </g>
    </g>
  </defs>
  <g transform="matrix(1 0 0 1 -600 -917 )">
    <use xlink:href="#widget45" filter="url(#filter44)" />
    <use xlink:href="#widget45" />
  </g>
</svg>