<?xml version="1.0" standalone="no"?><!DOCTYPE svg PUBLIC "-//W3C//DTD SVG 1.1//EN" "http://www.w3.org/Graphics/SVG/1.1/DTD/svg11.dtd"><svg t="1611643348870" class="icon" viewBox="0 0 1024 1024" version="1.1" xmlns="http://www.w3.org/2000/svg" p-id="5031" xmlns:xlink="http://www.w3.org/1999/xlink" width="200" height="200"><defs><style type="text/css"></style></defs><path d="M320.955128 514.552205L573.760784 259.820818 825.313186 514.552205V1023.999694H320.955128z" fill="#F38467" p-id="5032"></path><path d="M213.618563 950.134164H810.33528V617.777487a37.12381 37.12381 0 0 1 37.246079-36.925123A37.12381 37.12381 0 0 1 884.919139 617.762204v369.297083A37.12381 37.12381 0 0 1 847.62721 1023.999694H176.280783a37.12381 37.12381 0 0 1-37.246078-36.925123V617.762204a37.12381 37.12381 0 0 1 37.246078-36.925124 37.12381 37.12381 0 0 1 37.322497 36.925124v332.356677zM511.984564 89.179675L63.717235 533.03005a37.567034 37.567034 0 0 1-52.789477 0 36.680586 36.680586 0 0 1 0-52.223985L485.543974 10.85134a37.567034 37.567034 0 0 1 52.804761 0l474.692634 469.970009a36.74172 36.74172 0 0 1 0 52.361537 37.628168 37.628168 0 0 1-52.80476 0L511.96928 89.240809v-0.061134z" fill="#325CAB" p-id="5033"></path></svg>